<svg width="288" height="288" viewBox="0 0 288 288" fill="none" xmlns="http://www.w3.org/2000/svg">
<path d="M134.501 78.0115C134.501 78.2208 137.675 84.0456 138.499 85.3186C138.911 85.9813 139.614 86.958 140.043 87.4986C140.489 88.0566 140.85 88.5798 140.85 88.667C140.85 89.0681 133.969 89.2077 130.623 88.8589C126.866 88.4752 122.765 87.6207 119.248 86.5045C118.476 86.2429 117.807 86.0685 117.772 86.1034C117.652 86.2255 120.552 89.4692 121.822 90.6551C122.525 91.3004 123.778 92.3119 124.601 92.9048C125.442 93.4803 126.094 93.9861 126.042 94.021C126.008 94.0558 124.79 94.4046 123.314 94.7709C115.387 96.8462 108.593 96.6718 103.24 94.2826C102.777 94.0907 102.416 93.9861 102.416 94.0558C102.416 94.4221 103.514 95.8695 104.527 96.8113C105.608 97.8577 107.975 99.4621 109.537 100.229C109.966 100.439 110.309 100.665 110.309 100.735C110.309 100.997 106.345 102.409 103.789 103.072C101.061 103.77 99.1905 104.049 96.4968 104.153C93.5456 104.275 91.1092 104.031 88.7415 103.403C87.8664 103.177 87.0772 102.985 87.0085 102.985C86.8027 102.985 89.016 104.432 90.9205 105.548C91.9157 106.124 94.0089 107.258 95.6046 108.06C97.1831 108.862 98.4699 109.577 98.4699 109.629C98.4699 109.682 97.5605 110.1 96.4625 110.536C91.6754 112.402 88.6728 113.082 84.4692 113.222C80.5744 113.344 77.6404 112.908 74.9295 111.792C73.6427 111.251 73.7456 111.495 75.6844 113.379C77.2458 114.896 79.7851 116.692 82.3073 118.053C83.1824 118.523 83.8344 118.959 83.7657 119.029C83.6285 119.169 77.589 120.965 74.7065 121.75C71.2234 122.709 68.2037 122.936 65.5271 122.447C64.3775 122.238 63.9486 122.221 64.1716 122.395C64.2059 122.43 64.7378 122.883 65.3555 123.407C66.9855 124.802 69.9023 126.528 72.2014 127.487L73.1451 127.889L72.373 128.272C71.9612 128.481 70.6915 129.249 69.5591 129.981C65.9903 132.266 63.777 133.103 60.7915 133.277C59.2645 133.365 57.7546 133.225 56.279 132.859C55.8844 132.754 55.8844 132.772 56.4335 133.574C57.8404 135.667 60.7915 137.846 63.8628 139.067C65.7158 139.8 67.809 140.305 68.9415 140.305C69.3189 140.305 69.6621 140.375 69.7136 140.445C69.765 140.532 69.0272 141.369 68.0836 142.328C67.157 143.27 66.385 144.107 66.385 144.194C66.385 144.369 66.3335 144.369 69.0959 143.514C70.2454 143.166 71.2234 142.904 71.2749 142.939C71.3092 142.991 71.1891 143.375 70.9661 143.811C70.6401 144.491 70.5886 144.979 70.4856 147.892C70.3655 151.188 70.1768 152.356 69.542 153.594C69.4047 153.873 69.3189 154.083 69.3361 154.083C69.3704 154.083 70.1597 153.891 71.0862 153.647C72.1328 153.368 73.7285 153.141 75.2898 153.019C76.6624 152.932 78.6356 152.775 79.6822 152.687C80.7117 152.6 81.5867 152.548 81.6039 152.583C81.621 152.6 81.5352 153.001 81.3808 153.472C81.2435 153.961 81.0548 155.356 80.9519 156.611C80.8661 157.85 80.7117 159.82 80.6259 160.971C80.4371 163.465 80.0082 165.279 79.1846 167.005C78.8586 167.72 78.6013 168.313 78.6184 168.313C78.6356 168.331 79.2361 167.912 79.9396 167.389C80.643 166.866 81.7411 166.168 82.376 165.837C83.4741 165.279 83.6971 165.227 87.6091 164.825C89.8567 164.599 91.7098 164.424 91.7441 164.459C91.7784 164.494 91.7098 165.174 91.5897 165.959C91.4867 166.761 91.3838 168.836 91.3666 170.563C91.3495 174.156 91.3151 174.26 89.7195 176.144C88.9131 177.085 87.8664 178.847 88.0895 178.847C88.141 178.847 88.5527 178.655 88.9988 178.428C90.217 177.8 92.5505 176.998 94.129 176.684C94.9011 176.51 97.2174 176.283 99.2763 176.144C102.262 175.969 103.205 175.847 103.96 175.551C105.161 175.08 105.196 175.097 104.99 175.638C104.647 176.545 104.321 179.004 104.132 182.125C103.926 185.561 103.566 187.444 102.862 188.718C102.622 189.136 102.468 189.485 102.502 189.485C102.553 189.485 103.068 189.223 103.652 188.892C105.813 187.689 107.598 187.427 110.738 187.828C113.191 188.142 114.392 188.072 115.387 187.567C115.748 187.375 116.057 187.253 116.074 187.27C116.108 187.305 116.039 187.863 115.936 188.526C115.679 190.235 115.868 194.054 116.314 196.373C116.829 198.989 117.841 202.024 119.162 204.832C120.329 207.308 122.285 210.761 122.525 210.761C122.594 210.761 122.662 209.907 122.662 208.86C122.662 202.931 124.275 197.368 126.797 194.647C128.084 193.234 128.994 192.607 129.217 192.99C129.851 194.054 131.927 198.048 132.477 199.234C132.837 200.036 133.18 200.646 133.214 200.611C133.266 200.576 133.403 198.71 133.557 196.478C133.901 191.159 134.312 189.154 135.565 186.625C136.594 184.567 139.117 181.149 139.477 181.376C139.546 181.41 140.712 183.259 142.068 185.456C143.423 187.671 144.556 189.45 144.59 189.415C144.624 189.38 144.521 188.892 144.384 188.334C142.96 182.666 144.024 175.655 147.026 171.173C148.004 169.691 149.874 167.72 150.063 167.947C150.149 168.034 151.11 170.022 152.174 172.342C153.237 174.679 154.147 176.562 154.164 176.527C154.198 176.492 154.13 175.69 154.044 174.748C153.598 170.493 154.353 166.116 156.12 162.645C156.875 161.181 158.625 158.913 159.037 158.844C159.208 158.826 159.586 159.419 160.118 160.553C160.564 161.494 161.49 163.029 162.177 163.953L163.412 165.645L163.446 164.616C163.584 161.39 164.064 157.588 164.561 156.001C166.655 149.269 171.322 144.421 176.949 143.183C178.665 142.799 181.119 142.904 182.749 143.427C184.19 143.898 186.232 145.276 187.261 146.462C188.325 147.7 188.308 148.171 187.158 150.089C186.609 151.013 186.249 151.833 186.197 152.286C186.146 152.705 186.163 153.036 186.232 153.036C186.3 153.036 186.626 152.81 186.935 152.513C187.793 151.763 188.702 151.327 189.852 151.135C190.899 150.978 192.786 151.17 193.078 151.467C193.163 151.554 193.078 152.426 192.855 153.594C192.271 156.786 192.426 158.46 193.352 158.966C193.747 159.175 193.781 159.018 193.507 158.373C193.112 157.501 194.347 156.245 199.1 152.687C203.63 149.287 204.676 147.857 204.676 145.049V143.689L206.564 141.892C208.605 139.974 209.154 139.172 209.48 137.707C209.738 136.591 209.635 134.01 209.292 133.225L209.051 132.667L206.667 134.585C205.345 135.632 203.887 136.73 203.407 136.992L202.549 137.498L201.965 136.591C201.639 136.085 201.022 135.265 200.61 134.777L199.855 133.87L198.723 134.76C198.122 135.248 197.521 135.806 197.419 135.98C197.093 136.486 197.007 136.364 196.921 135.196C196.818 133.94 195.977 131.237 195.651 131.115C195.531 131.062 195.171 131.237 194.862 131.464C193.558 132.475 190.298 133.783 189.972 133.434C189.903 133.365 189.869 132.946 189.886 132.493C189.972 130.871 189.114 128.691 187.947 127.575C187.57 127.226 187.519 127.208 187.519 127.47C187.519 128.011 186.455 128.917 185.46 129.214C184.962 129.371 184.516 129.458 184.464 129.406C184.43 129.371 184.396 128.795 184.396 128.15C184.413 126.755 184.156 125.238 183.864 124.994C183.71 124.871 183.298 124.994 182.457 125.412C181.736 125.761 180.999 126.005 180.604 126.005C179.815 126.005 178.562 125.36 177.704 124.523C177.138 123.982 177.052 123.773 177.052 123.128C177.052 121.558 178.03 119.692 179.317 118.82C180.072 118.297 180.312 118.367 180.312 119.116C180.312 119.64 181.222 121.506 181.822 122.186C182.406 122.866 183.589 123.494 183.984 123.337C184.121 123.284 184.585 122.692 185.014 122.046C185.648 121.07 186.592 120.076 186.884 120.076C186.918 120.076 187.227 120.651 187.587 121.366C187.93 122.081 188.548 123.005 188.943 123.441C189.903 124.435 191.173 125.203 191.619 125.046C191.808 124.994 192.494 124.348 193.129 123.616C194.227 122.36 195.445 121.296 195.789 121.296C196.029 121.296 196.286 122.168 196.475 123.738C196.664 125.395 197.144 126.528 197.624 126.528C198.036 126.528 198.602 126.075 200.335 124.401C201.125 123.651 201.897 123.04 202.085 123.04C202.463 123.04 203.389 123.773 203.681 124.313C203.784 124.505 203.921 125.412 203.99 126.302C204.059 127.208 204.179 128.011 204.282 128.115C204.505 128.342 206.993 127.54 208.502 126.755C209.206 126.371 209.978 125.778 210.441 125.255C210.853 124.784 211.248 124.435 211.299 124.488C211.351 124.54 211.402 124.871 211.402 125.238C211.402 125.691 211.042 126.581 210.184 128.307C209.515 129.65 208.966 130.853 208.966 131.01C208.966 131.254 209.154 131.272 210.218 131.185C212.294 131.028 214.044 130.138 215.692 128.377C216.652 127.365 217.819 125.15 217.974 124.034C218.076 123.319 218.128 123.267 219.089 122.901C220.822 122.221 221.405 121.663 222.28 119.849C223.104 118.14 223.618 117.477 224.579 116.902C226.141 115.96 226.861 114.844 227.548 112.35C227.994 110.745 228.028 110.693 229.761 108.653C231.133 107.048 231.614 105.915 231.614 104.31V103.212L230.001 103.02C229.109 102.898 227.204 102.81 225.797 102.81H223.207L221.542 102.13C216.326 100.02 212.243 99.0087 205.019 98.0495L202.188 97.6658L200.558 95.451C198.671 92.87 197.847 91.9805 196.784 91.2655C195.754 90.6028 193.489 89.8878 190.35 89.2251C188.943 88.9286 183.092 87.516 177.361 86.086L166.929 83.4526L165.213 84.1502C162.4 85.2489 160.958 85.5802 158.265 85.6674C154.456 85.8069 150.372 85.1617 144.882 83.5398C141.759 82.6155 138.739 81.0634 135.908 78.9358C135.136 78.3428 134.501 77.9243 134.501 78.0115ZM170.824 85.9988C172.917 86.4173 174.805 86.7661 174.993 86.7661C175.199 86.7661 175.302 86.8533 175.251 86.9405C174.856 87.5858 172.059 87.9694 170.069 87.673C168.25 87.4114 168.851 88.1613 170.961 88.7891C172.059 89.103 173.003 89.1379 178.597 89.0333C181.428 88.9635 181.925 88.9984 183.263 89.3472C184.756 89.7134 186.832 90.6377 186.832 90.9342C186.832 91.126 182.663 92.9048 180.432 93.6896C178.888 94.2128 178.562 94.2651 176.692 94.2651C174.547 94.2651 174.118 94.4395 175.388 94.8057C176.846 95.2417 178.957 95.0673 182.131 94.2826C183.744 93.8989 185.717 93.4803 186.506 93.3757C188.325 93.1141 191.173 93.2536 192.031 93.6373C193.507 94.3 194.536 95.7649 194.793 97.5961L194.914 98.3983L187.158 98.5204C176.846 98.6773 171.905 99.0087 171.905 99.5144C171.905 99.7062 171.63 99.6714 174.118 99.8458C176.16 99.9853 176.263 100.003 177.121 100.613C177.601 100.944 179.146 102.374 180.535 103.77C183.109 106.333 183.71 106.787 185.116 107.17C185.545 107.292 186.009 107.415 186.146 107.467C186.283 107.502 185.014 108.252 183.315 109.124C176.641 112.542 171.768 115.419 170.361 116.762C169.383 117.686 168.817 118.803 167.633 122.081C167.135 123.424 166.552 124.959 166.312 125.499C165.814 126.685 165.78 127.086 166.243 126.493C166.432 126.249 166.895 125.918 167.272 125.761C167.942 125.499 167.959 125.464 167.959 124.662C167.959 122.482 169.915 118.837 172.059 116.989C174.564 114.809 179.78 111.74 183.538 110.222C184.962 109.647 189.526 108.583 190.573 108.566C190.796 108.566 190.916 108.496 190.864 108.391C190.813 108.286 190.195 108.217 189.526 108.199H188.291L190.658 106.979C196.544 103.944 202.309 102.078 207.301 101.572C214.079 100.875 221.233 103.909 224.133 108.688L224.802 109.786H225.763C227.136 109.786 227.324 109.612 226.758 108.914C226.501 108.618 226.295 108.304 226.295 108.234C226.295 107.92 226.724 107.728 227.222 107.816C227.976 107.938 228.371 107.484 227.925 106.996C227.479 106.49 226.621 106.386 225.729 106.734C224.528 107.205 223.979 106.699 223.653 104.833L223.533 104.153L226.329 104.275C229.555 104.415 229.641 104.467 229.486 105.775C229.332 106.961 228.491 108.513 227.273 109.873C226.467 110.78 226.158 111.269 226.072 111.757C225.832 113.309 224.425 115.28 222.932 116.169C222.314 116.535 222.211 116.71 222.023 117.512C221.731 118.82 220.925 120.18 220.015 120.825C218.694 121.767 217.819 122.029 215.657 122.116C212.191 122.273 210.201 121.593 203.561 117.983C201.296 116.762 198.654 115.384 197.676 114.948C195.737 114.076 192.597 112.995 191.482 112.821C191.087 112.751 190.779 112.646 190.779 112.559C190.779 112.489 191.362 112.228 192.065 112.001C192.769 111.774 193.301 111.53 193.232 111.478C193.026 111.251 190.161 111.356 188.634 111.617C184.327 112.385 181.342 114.233 176.126 119.378C173.621 121.854 171.013 124.854 169.898 126.546L169.143 127.697L169.692 128.586C170 129.109 170.258 129.807 170.309 130.26C170.361 130.714 170.464 131.062 170.532 131.062C170.601 131.062 170.841 130.138 171.047 129.005C171.27 127.889 171.545 126.772 171.665 126.528C171.922 125.97 173.604 124.366 173.741 124.505C173.81 124.575 173.998 125.168 174.17 125.866C174.564 127.435 175.422 129.057 176.246 129.737C177.001 130.347 177.19 130.26 176.795 129.475C176.16 128.255 175.851 126.982 175.851 125.709C175.851 125.011 175.903 124.435 175.989 124.435C176.126 124.453 177.035 125.674 177.498 126.493C178.099 127.575 186.077 133.312 191.379 136.504C194.57 138.422 197.779 140.201 200.696 141.683C203.87 143.305 203.715 143.078 203.235 145.38C202.755 147.647 201.691 149.112 199.392 150.647C198.276 151.397 196.526 152.356 195.634 152.705C195.205 152.862 195.188 152.862 195.48 152.478C196.681 150.787 197.298 149.357 197.298 148.275C197.298 147.647 196.698 146.688 196.423 146.845C196.338 146.915 196.269 147.124 196.269 147.334C196.269 147.944 195.806 148.467 194.845 148.973C194.09 149.374 193.678 149.461 192.203 149.514C191.225 149.548 190.195 149.531 189.886 149.479C189.32 149.374 189.32 149.374 189.303 148.275C189.303 146.915 188.857 146.026 187.536 144.613C184.842 141.718 181.874 140.55 178.373 141.003C174.856 141.439 170.618 143.567 168.182 146.095C167.341 146.985 163.12 153.856 161.765 156.559L161.199 157.658L160.976 156.873C160.255 154.484 160.615 150.455 161.954 145.869L162.297 144.7L164.064 143.828C167.942 141.892 169.966 139.538 170.138 136.73L170.224 135.51L169.348 137.271C167.821 140.393 166.895 141.125 162.914 142.311C160.735 142.956 156.515 143.898 156.377 143.758C156.326 143.724 156.446 143.061 156.652 142.294C157.012 140.898 157.149 138.16 156.978 135.161C156.892 133.818 157.098 133.295 158.573 130.906C159.38 129.615 159.62 128.133 159.157 127.487C158.917 127.156 158.882 127.173 158.625 127.836C157.921 129.51 157.51 129.685 150.921 130.801C147.884 131.324 145.259 131.76 145.105 131.76C144.83 131.76 144.83 131.708 145.156 131.167C145.808 130.051 146.031 128.272 145.911 125.395C145.739 121.645 146.186 119.674 147.575 118.07L148.296 117.25L147.61 117.599C147.249 117.791 146.46 118.297 145.894 118.733C145.311 119.169 144.59 119.657 144.298 119.797C143.457 120.25 141.313 120.442 138.447 120.32C136.972 120.267 135.428 120.302 134.964 120.39C134.175 120.546 134.158 120.546 134.278 120.18C134.415 119.831 134.415 119.256 134.295 114.146C134.244 111.67 134.45 110.745 135.445 109.158L136.028 108.234L135.05 108.6C134.347 108.862 133.489 108.984 131.996 109.036C130.109 109.124 129.577 109.071 125.819 108.391C123.572 107.973 121.684 107.606 121.65 107.571C121.616 107.554 122.251 106.141 123.074 104.467C124.344 101.869 124.67 101.328 125.27 100.892C125.665 100.596 126.077 100.369 126.197 100.369C126.403 100.369 126.746 98.5378 126.574 98.3634C126.54 98.3111 125.991 98.6424 125.356 99.0784C124.395 99.7586 123.383 100.927 123.143 101.607C123.074 101.816 119.677 101.293 117.378 100.718C115.25 100.16 112.213 98.7994 111.561 98.0669L111.184 97.6658L114.049 97.6484C115.628 97.6484 117.498 97.5437 118.201 97.4391C119.282 97.2821 128.702 95.1371 131.481 94.4221L132.305 94.2128L130.881 93.7942C130.092 93.5675 128.736 93.0443 127.861 92.6084C126.351 91.8585 123.4 89.8006 123.572 89.6262C123.623 89.5739 123.949 89.6088 124.309 89.7134C124.687 89.8006 125.751 89.9924 126.694 90.1145C129.731 90.5156 145.671 90.3761 145.654 89.9401C145.637 89.8704 145.242 89.6262 144.761 89.3995C143.681 88.8763 142.119 87.3242 141.484 86.1034C141.21 85.6151 141.073 85.1966 141.158 85.1966C141.244 85.1966 141.759 85.3884 142.291 85.6326C143.629 86.2429 146.271 87.0103 148.313 87.3939C150.904 87.8997 156.326 87.8474 159.122 87.3242C161.13 86.9405 164.733 85.8244 165.677 85.3012C165.951 85.1442 166.346 85.0745 166.569 85.1268C166.809 85.1791 168.714 85.5628 170.824 85.9988ZM196.698 93.864C197.127 94.3174 198.019 95.4859 198.671 96.4451C199.306 97.4217 200.078 98.468 200.353 98.7645L200.867 99.3226H202.926C204.848 99.3226 207.662 99.497 207.559 99.6016C207.524 99.619 206.22 99.933 204.676 100.264C201.21 101.014 197.316 102.095 195.154 102.898L193.558 103.491L193.901 102.88C194.09 102.566 194.433 101.764 194.656 101.119C195.085 99.8458 195.171 99.8109 196.012 100.439C197.127 101.311 198.019 101.59 198.74 101.311C199.289 101.101 198.997 100.718 197.847 100.125C196.286 99.3226 196.252 99.2703 196.544 98.1018C196.921 96.6369 196.612 95.2068 195.583 93.6024C195.205 93.0618 195.205 93.0443 195.548 93.0443C195.737 93.0443 196.252 93.4106 196.698 93.864ZM192.992 99.5667C193.489 100.02 193.455 101.032 192.923 102.078C192.237 103.438 192.323 103.386 191.259 102.81C190.71 102.497 189.183 101.991 187.742 101.607C185.014 100.892 184.121 100.543 183.641 100.003C183.349 99.6714 183.384 99.6714 184.705 99.6539C185.442 99.6539 186.712 99.5318 187.519 99.4098C188.325 99.2877 189.801 99.1831 190.796 99.2005C192.34 99.2354 192.683 99.2877 192.992 99.5667ZM183.075 100.247C184.036 100.543 191.276 104.031 191.413 104.258C191.551 104.485 190.779 105.13 189.663 105.74C188.411 106.42 186.952 106.386 185.46 105.671C184.001 104.956 181.959 103.403 180.055 101.537L178.511 100.038L180.415 100.02C181.53 100.02 182.629 100.125 183.075 100.247ZM111.767 103.613C110.669 104.921 109.691 106.822 109.519 107.973L109.417 108.74H106.465C103.428 108.74 100.803 108.443 99.242 107.938C98.2983 107.624 97.0973 106.996 97.0973 106.822C97.0973 106.752 97.8694 106.612 98.8131 106.49C102.193 106.072 106.877 104.659 110.652 102.915C111.99 102.305 112.642 102.078 112.677 102.235C112.711 102.34 112.299 102.967 111.767 103.613ZM119.883 102.758C121.65 102.845 121.976 102.898 121.976 103.142C121.976 103.682 120.981 105.165 119.334 107.118C118.424 108.199 117.687 109.106 117.687 109.124C117.687 109.158 119.025 109.176 120.655 109.176C124.841 109.176 124.807 109.124 122.491 111.513C120.706 113.344 120.586 113.449 119.368 113.832C118.321 114.164 117.738 114.216 115.713 114.216C113.38 114.216 112.11 114.059 110.446 113.518L109.64 113.257L110.069 112.402C110.292 111.949 110.48 111.426 110.48 111.269C110.48 110.745 111.475 107.92 112.127 106.612C112.985 104.886 114.032 103.386 114.77 102.863C115.319 102.479 115.49 102.444 116.571 102.549C117.24 102.601 118.716 102.688 119.883 102.758ZM107.649 110.257L108.456 110.362L108.387 111.094C108.284 111.879 107.649 112.96 106.62 114.076C106.294 114.425 106.036 114.739 106.054 114.774C106.088 114.791 107.1 114.914 108.336 115.053L110.549 115.28L109.417 116.099C107.718 117.338 106.465 118.576 106.139 119.326C105.985 119.692 105.779 120.442 105.676 121C105.196 123.494 103.205 123.999 99.4307 122.622C98.264 122.186 97.4576 121.994 96.8056 121.994C96.2909 121.994 95.8962 121.942 95.9306 121.854C96.5139 120.686 97.3547 118.698 98.4871 115.785C99.6366 112.891 99.9969 112.123 100.46 111.705C101.387 110.885 103.068 110.466 106.551 110.153C106.706 110.153 107.203 110.187 107.649 110.257ZM131.893 110.763C132.442 110.868 132.477 110.902 132.391 111.513C132.356 111.862 132.459 112.995 132.648 114.059C132.888 115.472 132.957 116.483 132.905 117.896C132.82 119.954 132.614 120.686 131.807 121.645C131.001 122.639 130.298 122.831 126.437 123.128C124.498 123.267 122.474 123.389 121.925 123.389H120.929L121.221 122.848C121.375 122.517 121.564 121.523 121.65 120.442C122.062 115.489 123.314 111.862 124.961 110.798C125.459 110.484 125.699 110.466 128.41 110.554C130.023 110.606 131.584 110.711 131.893 110.763ZM96.4625 115.629L95.1242 119.064L93.2368 118.977C88.141 118.698 82.8221 117.303 81.5695 115.89C81.2607 115.541 81.2607 115.541 81.8441 115.541C82.599 115.541 86.408 114.948 88.6042 114.478C90.4572 114.094 96.5654 112.524 97.2689 112.263C97.5091 112.175 97.715 112.106 97.7493 112.141C97.7664 112.158 97.2002 113.728 96.4625 115.629ZM191.722 114.042C193.129 114.53 197.213 116.605 199.872 118.192C202.686 119.849 203.372 120.163 204.608 120.337C205.26 120.424 205.62 120.581 205.963 120.948C206.907 121.942 205.894 122.447 204.162 121.837C203.595 121.628 202.772 121.471 202.326 121.471C201.691 121.471 201.142 121.279 199.906 120.634C198.534 119.936 198.139 119.814 197.298 119.814C196.492 119.814 196.2 119.727 195.686 119.326C193.73 117.808 190.727 117.32 188.325 118.157C187.879 118.314 187.845 118.279 187.364 117.303C186.695 115.977 186.129 115.297 185.34 114.914L184.688 114.617L185.288 114.355C187.09 113.571 189.989 113.431 191.722 114.042ZM120.432 116.099C120.432 116.657 119.711 121 119.402 122.29C118.716 125.273 117.944 126.04 114.118 127.609C112.797 128.15 112.779 128.15 108.97 128.237L105.161 128.307L105.676 127.453C106.019 126.877 106.294 126.057 106.534 124.802C107.478 120.058 109.262 117.477 112.368 116.413C113.294 116.099 113.569 116.065 114.186 116.221C115.216 116.483 118.116 116.448 119.145 116.169C120.243 115.855 120.432 115.838 120.432 116.099ZM184.464 116.5C185.305 116.797 186.026 117.477 186.232 118.122C186.335 118.471 186.146 118.75 184.911 120.006C183.624 121.314 183.401 121.471 183.04 121.331C182.337 121.087 181.788 119.692 181.771 118.157C181.771 116.361 181.839 116.239 182.852 116.239C183.315 116.239 184.036 116.361 184.464 116.5ZM193.026 119.797C193.386 120.058 193.695 120.355 193.695 120.477C193.695 120.738 191.31 123.564 191.087 123.564C190.796 123.564 190.006 122.587 189.457 121.541C188.582 119.831 188.582 119.779 189.526 119.483C190.71 119.099 192.168 119.221 193.026 119.797ZM93.7172 120.982C93.4599 121.471 92.7907 122.343 92.2588 122.901L91.2637 123.912H92.6363C93.3912 123.912 94.0089 123.965 94.0089 124.017C94.0089 124.087 93.5971 124.575 93.0995 125.116C92.0186 126.302 91.1264 127.976 90.4229 130.103C89.9082 131.655 89.9082 131.673 89.2562 131.795C87.9522 132.039 86.7512 131.934 85.4815 131.498C84.7952 131.254 83.6113 131.01 82.8735 130.94L81.5181 130.836L82.4961 129.65C83.0451 129.005 83.8172 127.836 84.2462 127.051C85.7389 124.244 86.8541 123.075 89.2219 121.82C90.5259 121.122 93.3226 120.093 93.8888 120.076C94.1633 120.076 94.1462 120.18 93.7172 120.982ZM88.8616 120.39C88.8616 120.459 88.6042 120.616 88.2782 120.738C87.2316 121.122 85.5673 122.343 84.2976 123.686C83.1309 124.871 80.969 127.889 80.969 128.29C80.969 128.638 79.9739 128.394 75.5643 126.929C71.9269 125.743 69.0616 124.453 69.3532 124.156C69.3876 124.122 70.417 123.999 71.6352 123.912C77.1085 123.459 81.8098 122.5 85.2413 121.105C85.9276 120.825 86.6311 120.512 86.7855 120.424C87.1115 120.233 88.8616 120.198 88.8616 120.39ZM199.392 121.907C199.769 122.168 200.044 122.482 200.044 122.674C200.044 123.075 198.894 124.087 198.448 124.087C197.83 124.087 196.955 121.453 197.521 121.244C197.847 121.139 198.671 121.418 199.392 121.907ZM143.818 122.343C144.058 123.267 143.835 129.022 143.526 130.33C143.011 132.44 142.445 133.19 140.764 133.957C139.786 134.411 139.546 134.446 136.388 134.568C133.643 134.655 132.837 134.76 131.876 135.074C131.224 135.283 130.658 135.422 130.623 135.37C130.589 135.335 130.675 135.004 130.829 134.62C131.035 134.149 131.173 133.068 131.258 131.15C131.601 124.784 133.094 122.604 137.59 121.837C138.104 121.75 139.683 121.697 141.09 121.715L143.663 121.732L143.818 122.343ZM209.463 122.447C209.909 122.535 209.995 122.639 209.995 123.04C209.995 123.651 209.086 125.028 208.245 125.709C207.507 126.319 205.86 126.929 205.637 126.703C205.551 126.615 205.448 125.848 205.414 125.011C205.38 124.156 205.328 123.389 205.294 123.267C205.242 123.162 205.311 122.988 205.431 122.883C205.929 122.447 208.245 122.203 209.463 122.447ZM216.172 124.052C216.172 124.558 215.537 126.336 215.057 127.156C214.473 128.185 213.187 129.284 212.243 129.563C211.814 129.685 211.436 129.789 211.402 129.755C211.385 129.737 211.557 129.301 211.78 128.778C212.174 127.906 212.912 125.342 212.912 124.854C212.912 124.732 212.981 124.435 213.084 124.191C213.238 123.755 213.289 123.738 214.714 123.738C216.018 123.738 216.172 123.773 216.172 124.052ZM130.726 124.418C130.726 124.505 130.606 124.662 130.469 124.784C130.315 124.906 130.023 125.255 129.817 125.552C129.457 126.057 129.44 126.267 129.44 129.406C129.44 133.016 129.302 133.696 128.221 135.265C127.278 136.661 124.79 137.864 121.478 138.561C119.78 138.91 116.331 139.329 116.211 139.207C116.177 139.172 116.314 138.684 116.503 138.108C116.812 137.236 116.88 136.643 116.914 134.289C116.966 130.539 117.464 128.621 118.716 127.156C119.986 125.691 122.971 124.854 128.324 124.453C129.32 124.366 130.263 124.296 130.435 124.279C130.589 124.279 130.726 124.331 130.726 124.418ZM100.512 124.976C101.764 125.342 102.725 125.36 103.995 125.028L104.475 124.924L104.235 125.743C103.857 126.964 103.257 127.784 101.73 129.074C99.9112 130.627 99.9112 130.696 101.85 130.347C102.451 130.243 103.137 130.208 103.377 130.26C103.823 130.382 103.806 130.382 103.051 130.975C101.833 131.917 100.186 134.742 100.186 135.911C100.186 136.434 99.9455 136.626 98.8989 136.992C97.2517 137.567 94.8668 137.777 92.7735 137.55C91.7956 137.445 90.7146 137.254 90.3371 137.149L89.6852 136.957L90.2857 136.329C91.2465 135.3 91.7441 134.114 92.2931 131.533C92.8936 128.726 94.5065 125.953 95.9649 125.185C97.2517 124.505 98.6415 124.453 100.512 124.976ZM183.315 127.034C183.452 127.836 183.075 128.848 182.543 129.144C181.994 129.441 181.187 128.883 180.604 127.801L180.141 126.912L181.307 126.703C181.942 126.598 182.577 126.441 182.714 126.354C183.058 126.127 183.178 126.267 183.315 127.034ZM76.4909 129.162C76.7825 129.266 77.0227 129.388 77.0227 129.441C77.0227 129.493 76.6967 129.894 76.3193 130.33C75.4957 131.272 72.8534 135.3 71.5151 137.655C70.6229 139.224 70.5714 139.259 70.0739 139.154C68.5983 138.841 65.4241 137.742 64.0515 137.097C62.5245 136.347 61.0661 135.248 61.0661 134.812C61.0661 134.69 61.3921 134.533 61.8553 134.463C64.0687 134.132 69.216 132.109 73.2309 130.016C75.307 128.917 75.5987 128.848 76.4909 129.162ZM115.216 131.272C114.89 136.294 113.946 139.887 112.659 141.177C111.75 142.084 108.421 143.183 103.497 144.229C100.906 144.77 101.009 144.77 101.215 144.212C101.318 143.968 101.387 142.398 101.387 140.724C101.387 136.329 101.901 134.184 103.326 132.667C104.509 131.394 105.968 130.975 109.674 130.818C111.939 130.714 113.534 130.4 114.598 129.842C114.924 129.65 115.233 129.51 115.267 129.493C115.302 129.493 115.284 130.295 115.216 131.272ZM188.308 130.278C188.428 130.609 188.548 131.289 188.548 131.778V132.684L187.673 132.562C185.974 132.336 184.602 131.429 184.602 130.522C184.602 130.173 184.67 130.156 186.403 129.877C188.05 129.615 188.033 129.615 188.308 130.278ZM77.7434 131.812C77.2973 132.597 76.9713 133.626 77.1085 133.853C77.1772 133.957 77.4174 133.818 77.7262 133.521C78.3782 132.841 79.7337 132.562 81.5867 132.684C82.702 132.772 86.8198 133.399 88.8273 133.783L89.2219 133.87L88.7243 134.76C87.9865 136.05 87.0085 137.254 86.1678 137.881C85.7732 138.195 85.4643 138.492 85.5158 138.527C85.5501 138.561 85.8418 138.649 86.1507 138.718L86.7169 138.841L85.859 139.468C83.7829 141.02 82.2387 141.526 79.6307 141.526C78.1037 141.526 72.8019 141.003 72.0127 140.776C71.7896 140.724 73.3681 137.009 74.226 135.527C74.9638 134.289 77.6061 131.237 77.9493 131.237C78.0351 131.237 77.9321 131.498 77.7434 131.812ZM155.777 132.057C155.777 132.144 155.657 132.58 155.519 133.051C155.348 133.644 155.262 134.69 155.262 136.347C155.262 139.242 155.056 140.602 154.438 141.875C153.478 143.811 151.779 144.404 146.426 144.665C144.538 144.753 142.651 144.909 142.222 144.997C141.278 145.206 140.626 145.241 140.729 145.049C140.97 144.665 141.759 140.497 141.948 138.544C142.153 136.661 142.256 136.172 142.617 135.614C143.749 133.888 147.455 132.597 152.723 132.126C154.919 131.934 155.777 131.917 155.777 132.057ZM195.308 134.149C195.514 135.457 195.428 136.277 195.068 136.469C194.69 136.678 193.507 136.451 192.408 135.963C190.676 135.178 191.019 134.428 193.369 133.783C194.931 133.347 195.171 133.399 195.308 134.149ZM208.468 135.823C208.382 136.364 208.091 137.219 207.833 137.724C206.872 139.66 204.762 141.875 203.887 141.875C203.458 141.875 201.245 141.073 201.022 140.846C200.936 140.759 201.159 140.602 201.536 140.48C201.965 140.323 202.72 139.73 203.733 138.736C205.843 136.643 208.331 134.55 208.502 134.725C208.588 134.795 208.571 135.3 208.468 135.823ZM140.609 135.736C140.575 135.806 140.369 137.288 140.18 138.997C139.528 144.7 139.477 144.857 138.087 146.706C136.8 148.415 135.891 149.339 135.256 149.548C134.57 149.793 132.905 149.827 130.212 149.653C128.462 149.548 127.93 149.583 127.312 149.793C126.368 150.141 126.368 150.141 126.506 149.67C126.557 149.461 126.814 147.944 127.038 146.322C128.033 139.556 128.719 138.143 131.533 137.184C132.459 136.87 133.901 136.626 137.898 136.12C138.773 135.998 139.7 135.858 139.957 135.771C140.575 135.579 140.712 135.579 140.609 135.736ZM200.524 136.486C200.781 136.992 200.679 138.16 200.301 138.91C199.975 139.556 199.323 139.608 198.482 139.032C197.573 138.405 197.642 138.056 198.877 136.922C199.477 136.382 200.044 135.98 200.129 135.998C200.232 136.033 200.404 136.242 200.524 136.486ZM95.0384 139.521C96.9429 140.009 97.6292 140.009 99.019 139.503L99.7224 139.259L99.6195 140.951C99.4994 143.392 99.019 144.805 97.938 145.938C97.4748 146.427 97.0973 146.863 97.0973 146.898C97.0973 146.95 97.4748 146.932 97.938 146.898C98.6072 146.828 98.7616 146.863 98.693 147.055C98.5214 147.525 96.4968 149.025 95.5531 149.409C94.5751 149.793 94.5751 149.793 87.8321 149.653C87.4032 149.653 86.7169 149.705 86.3051 149.793L85.5501 149.932L85.6702 147.752C85.859 143.985 86.4938 141.317 87.4546 140.253C87.815 139.835 88.8273 139.311 89.668 139.085C90.6975 138.823 93.0824 139.015 95.0384 139.521ZM126.368 139.695C126.077 140.462 125.699 142.311 125.322 144.857C124.859 147.909 124.481 149.583 124.086 150.577C123.057 153.071 121.152 154.03 116.914 154.205C115.593 154.257 113.912 154.431 113.191 154.606C112.453 154.78 111.853 154.885 111.853 154.867C111.853 154.85 112.007 154.466 112.196 154.03C112.522 153.28 112.539 153.001 112.436 150.037C112.316 146.601 112.522 144.892 113.191 143.724C113.929 142.433 116.314 141.422 120.689 140.567C124.944 139.747 125.648 139.59 125.734 139.503C125.768 139.468 125.957 139.433 126.145 139.433C126.368 139.433 126.437 139.521 126.368 139.695ZM84.0059 145.712C83.7314 150.473 83.3711 150.769 78.0694 150.769C75.1011 150.769 73.4883 150.961 72.4931 151.38C72.2014 151.519 72.1843 151.397 72.2529 148.833C72.373 144.003 72.8363 143.619 78.0522 144.142C80.0253 144.334 81.7926 144.125 83.1652 143.567C83.6971 143.34 84.1432 143.166 84.1432 143.166C84.1604 143.183 84.0917 144.317 84.0059 145.712ZM110.429 148.938C110.309 153.35 109.828 155.199 108.456 156.611C107.049 158.041 105.058 158.617 101.421 158.617C99.9283 158.617 98.6586 158.722 97.9723 158.879C97.3718 159.035 96.8399 159.123 96.8056 159.07C96.7541 159.035 96.8571 158.111 97.0115 157.012C97.6978 152.234 98.5214 149.357 99.4994 148.31C100.615 147.107 103.943 145.834 108.25 144.962L110.223 144.543L110.36 145.171C110.446 145.52 110.463 147.211 110.429 148.938ZM153.992 146.2C153.975 147.229 154.044 147.665 154.284 148.031C154.438 148.293 154.644 148.502 154.713 148.502C154.782 148.502 155.039 148.118 155.296 147.647C155.965 146.409 157.801 145.293 159.809 144.909L160.461 144.787L160.341 145.694C159.929 148.903 157.613 151.554 154.095 152.862C152.431 153.472 150.183 153.908 148.639 153.908H147.558L147.438 153.28C147.387 152.949 147.352 151.746 147.404 150.63C147.49 148.101 147.764 147.386 148.914 146.793C149.377 146.549 149.977 146.409 150.492 146.409C151.316 146.409 152.277 146.008 153.46 145.206C153.752 144.997 153.992 144.84 153.992 144.84C154.009 144.84 154.009 145.45 153.992 146.2ZM145.585 147.438C145.259 148.066 145.242 149.095 145.499 151.903C145.739 154.431 145.619 154.99 144.538 156.611C143.801 157.693 143.543 158.617 143.955 158.617C144.075 158.617 144.71 158.198 145.379 157.675C146.855 156.524 148.244 155.844 149.446 155.705L150.338 155.6L150.218 156.454C149.857 159.14 147.215 161.599 144.109 162.087C143.492 162.192 142.256 162.279 141.364 162.279C140.163 162.279 139.271 162.401 138.036 162.733C137.109 162.977 136.32 163.134 136.268 163.099C136.234 163.047 136.286 162.68 136.388 162.262C136.526 161.739 136.56 160.448 136.474 157.937C136.371 154.885 136.388 154.17 136.629 153.211C137.366 150.281 138.756 148.851 141.965 147.717C142.857 147.403 145.705 146.758 145.791 146.845C145.825 146.88 145.722 147.142 145.585 147.438ZM95.8276 152.112C95.7761 152.391 95.6046 153.542 95.4673 154.693C95.004 158.303 94.3692 160.309 93.3569 161.355C92.2417 162.471 89.5822 163.099 85.1384 163.273L82.3588 163.378L82.4446 161.041C82.6676 155.286 83.2338 153.263 84.8467 152.583C86.2364 151.99 88.8101 151.728 93.7172 151.676L95.9306 151.641L95.8276 152.112ZM135.016 154.902C135.016 160.675 134.433 163.413 133.008 164.477C131.773 165.401 129.748 166.098 127.466 166.378C125.888 166.569 124.567 167.005 124.018 167.511L123.52 167.999V167.424C123.52 167.093 123.28 165.907 122.971 164.773C122.474 162.872 122.422 162.489 122.422 159.925C122.405 157.658 122.456 156.96 122.714 156.228C123.143 155.007 123.898 153.995 124.859 153.368C126.265 152.461 127.072 152.304 130.812 152.164C132.7 152.112 134.415 152.042 134.638 152.025L135.016 151.99V154.902ZM159.02 153.594C158.951 154.1 158.882 154.85 158.882 155.251C158.865 155.914 158.762 156.106 157.887 157.012C156.446 158.46 154.456 162.366 153.031 166.465C152.517 167.93 152.414 168.034 152.122 167.302C151.693 166.238 151.487 164.494 151.487 161.686C151.487 159.053 151.504 158.931 151.933 158.286C152.174 157.902 152.551 157.082 152.757 156.437L153.134 155.286L154.627 154.763C156.291 154.205 157.458 153.629 158.333 152.967C158.659 152.722 158.968 152.565 159.037 152.6C159.088 152.635 159.088 153.089 159.02 153.594ZM120.415 156.96C119.969 158.634 120.003 159.524 120.638 162.175C121.067 163.971 121.187 164.843 121.204 166.273V168.069L120.449 168.749C119.248 169.848 117.103 170.371 113.054 170.58C110.892 170.685 109.348 170.982 108.644 171.452C108.284 171.679 108.267 171.662 108.147 171.069C107.975 170.144 108.181 162.454 108.404 161.756C108.867 160.221 111.458 157.78 113.397 157.03C113.912 156.838 115.49 156.524 116.88 156.332C118.27 156.141 119.711 155.931 120.054 155.844C120.397 155.774 120.706 155.722 120.723 155.722C120.741 155.739 120.603 156.297 120.415 156.96ZM106.019 161.599C105.71 162.785 105.625 163.849 105.505 167.162C105.367 171.714 105.282 172.115 104.252 173.039C102.982 174.173 99.3964 174.853 96.8399 174.452C96.085 174.33 95.0212 174.225 94.4893 174.243C93.9403 174.243 93.4942 174.243 93.4942 174.243C93.4942 174.225 93.5971 173.877 93.7344 173.441C93.8888 172.882 93.9403 171.941 93.8716 170.127C93.7515 165.872 94.2148 164.006 95.7933 162.489C97.5777 160.762 99.2763 160.256 102.674 160.431C104.389 160.518 105.058 160.483 105.59 160.309C105.968 160.169 106.294 160.082 106.328 160.099C106.362 160.134 106.208 160.797 106.019 161.599ZM149.428 163.692V165.628L148.124 167.04C145.07 170.389 142.754 174.801 141.793 179.108L141.484 180.504L141.176 179.196C140.609 176.806 140.3 174.103 140.3 171.522C140.283 168.802 140.472 167.354 141.055 165.628L141.433 164.546H142.256C142.72 164.546 143.457 164.459 143.904 164.355C144.882 164.11 147.129 163.064 148.313 162.314C148.794 162.018 149.222 161.756 149.308 161.756C149.377 161.756 149.428 162.628 149.428 163.692ZM138.362 165.453C138.053 167.284 137.933 168.714 137.933 170.668C137.933 172.778 137.916 172.9 137.469 173.563C136.406 175.132 134.638 176.771 133.163 177.521C131.704 178.271 126.557 179.754 123.932 180.172L123.229 180.277L123.126 179.614C122.885 178.062 122.8 174.504 122.988 173.196C123.229 171.47 123.709 170.546 124.79 169.831C125.819 169.116 126.814 168.819 129.525 168.366C132.065 167.947 133.18 167.476 134.141 166.36C134.793 165.61 134.861 165.575 136.509 165.261C137.435 165.07 138.259 164.93 138.327 164.913C138.396 164.895 138.413 165.157 138.362 165.453ZM120.518 178.568C120.089 181.062 119.214 182.718 117.807 183.712C115.851 185.073 112.865 185.805 108.73 185.945L105.848 186.049L106.225 185.142C106.603 184.253 106.603 184.253 106.277 183.346C105.367 180.8 106.448 176.405 108.456 174.574C109.777 173.371 110.841 173.074 114.598 172.917C118.167 172.743 118.75 172.638 119.883 171.923L120.689 171.418L120.741 174.208C120.775 176.144 120.706 177.469 120.518 178.568ZM138.276 177.399C138.276 178.446 137.984 179.073 136.217 181.899C133.523 186.224 132.459 189.066 132.133 192.711L132.013 194.281L131.361 192.275C130.383 189.171 130.143 187.584 130.143 184.009L130.126 180.887L131.499 180.556C133.832 179.998 136.783 178.289 137.692 176.963C138.104 176.37 138.276 176.51 138.276 177.399ZM127.192 183.852C127.329 186.311 127.552 187.828 127.964 189.084L128.273 190.026L126.626 191.717C124.893 193.479 123.829 194.978 122.765 197.141C122.079 198.501 120.947 201.78 120.947 202.355C120.947 203.14 120.603 202.844 119.951 201.466C118.15 197.769 117.446 193.426 118.03 189.659C118.51 186.625 120.826 183.782 123.76 182.631C124.533 182.335 126.351 181.864 126.883 181.829C127.003 181.811 127.106 182.544 127.192 183.852Z" fill="black"/>
<path d="M156.188 88.8414C155.605 89.1902 155.262 89.9575 155.262 90.8644V91.4225L154.37 90.969C153.512 90.5505 153.306 90.5156 151.058 90.533C148.45 90.533 148.365 90.5505 145.362 91.9108C143.612 92.6955 141.364 93.0095 139.545 92.7304C138.894 92.6432 138.327 92.5909 138.293 92.6258C138.087 92.8176 138.55 93.585 139.134 94.0035C139.511 94.2651 139.82 94.5441 139.82 94.6139C139.82 94.6837 139.34 94.9627 138.756 95.2417C137.692 95.7475 137.624 95.7475 134.57 95.7475H131.481L130.023 96.4799C129.234 96.881 128.376 97.4042 128.118 97.6135L127.638 98.0146L128.084 98.8691C129.045 100.787 129.971 101.572 132.099 102.287C133.849 102.88 134.69 103.543 138.327 107.135C142.411 111.181 144.847 113.187 146.958 114.251C149.325 115.454 150.698 115.472 156.635 114.286C161.319 113.361 163.052 113.536 164.973 115.123C165.488 115.559 165.9 115.855 165.9 115.785C165.9 115.733 165.625 115.262 165.299 114.757C164.51 113.571 163.343 112.472 162.331 112.001C161.181 111.46 158.694 111.513 155.605 112.123C154.267 112.402 152.379 112.646 151.127 112.699C149.24 112.786 148.811 112.751 147.781 112.437C145.722 111.792 144.212 110.623 140.197 106.543C136.251 102.514 135.908 102.27 132.888 101.049C131.601 100.526 130.795 100.072 130.332 99.6365C129.422 98.7645 129.508 98.346 130.709 97.6832C131.91 97.0205 133.557 96.8985 135.325 97.2996C136.732 97.6309 138.07 97.6484 139.048 97.3868C139.425 97.2821 141.055 96.5497 142.651 95.7475C144.264 94.9627 146.237 94.0733 147.061 93.7768C153.478 91.4748 159.002 92.9571 162.245 97.8402C162.949 98.9215 164.373 100.369 164.699 100.369C164.99 100.369 164.785 99.8283 163.652 97.5786C162.4 95.0499 162.005 94.579 159.963 93.1141C159.037 92.4514 157.956 91.5794 157.544 91.1609C156.72 90.3587 156.686 90.0971 157.338 89.1728C157.51 88.9112 157.664 88.6496 157.664 88.5973C157.664 88.388 156.669 88.5449 156.188 88.8414Z" fill="black"/>
<path d="M150.664 96.2707C150.2 96.881 149.892 98.1541 149.977 99.061C150.029 99.497 149.995 99.8458 149.909 99.8458C149.823 99.8458 149.205 99.7237 148.519 99.5667C146.992 99.2179 144.744 98.1716 143.886 97.4042C143.526 97.0903 143.2 96.881 143.131 96.9508C142.977 97.0903 143.372 98.3634 143.869 99.3749C144.247 100.107 144.264 100.212 144.024 100.317C143.372 100.561 141.862 100.177 139.7 99.2005C139.237 99.0087 139.511 99.5493 140.266 100.369C141.296 101.485 142.239 101.869 143.475 101.659C143.955 101.572 145.105 101.52 145.997 101.52C147.284 101.537 147.798 101.607 148.45 101.904C148.914 102.113 149.325 102.287 149.36 102.287C149.6 102.287 148.982 101.537 148.433 101.154L147.798 100.7L148.656 100.822C149.823 100.979 151.676 101.659 153.031 102.427L154.147 103.055L153.255 102.043C152.277 100.927 151.762 100.02 151.985 99.7934C152.156 99.619 155.228 101.171 157.836 102.776C158.917 103.438 159.843 103.961 159.877 103.927C159.895 103.909 159.689 103.578 159.397 103.194C158.728 102.357 158.436 101.38 158.694 100.892C158.796 100.7 158.951 100.543 159.037 100.543C159.122 100.543 159.534 100.997 159.963 101.555C161.833 104.031 163.532 104.833 166.449 104.607C167.959 104.485 168.679 104.694 169.76 105.531C170.189 105.862 170.532 106.072 170.532 105.984C170.532 105.671 169.177 104.084 168.473 103.595C167.787 103.124 166.929 101.869 167.135 101.677C167.272 101.537 169.228 102.113 170.138 102.566C171.236 103.107 172.351 104.345 172.608 105.322C172.866 106.281 172.711 107.798 172.265 108.827C171.802 109.873 171.939 110.013 173.398 109.908C176.023 109.717 176.812 108.007 175.508 105.322C174.135 102.497 170.807 100.543 167.307 100.543H166.191L166.294 101.52C166.346 102.043 166.517 102.671 166.672 102.915C166.929 103.316 166.912 103.334 166.603 103.334C165.968 103.334 163.978 102.497 163.034 101.834C161.748 100.944 160.598 99.5842 159.826 98.1192C159.483 97.4391 159.088 96.881 158.968 96.881C158.333 96.881 157.321 98.7819 157.321 99.9678C157.321 100.665 156.858 100.631 155.21 99.7934C153.512 98.9389 152.053 97.6484 151.47 96.4799C151.281 96.1311 151.11 95.8347 151.075 95.8347C151.024 95.8347 150.852 96.0265 150.664 96.2707Z" fill="black"/>
<path d="M141.467 103.264C141.141 103.578 141.124 103.944 141.381 104.711C141.587 105.287 141.707 105.357 141.999 105.06C142.325 104.729 143.011 105.025 143.989 105.95L144.933 106.822L145.122 106.263C145.379 105.514 145.963 104.903 146.426 104.903C147.095 104.903 148.347 105.897 149.874 107.659L151.384 109.385L152.156 109.141C155.022 108.234 158.951 107.955 161.164 108.461C161.782 108.618 163.069 109.124 164.03 109.612C164.99 110.1 165.814 110.466 165.848 110.414C166.037 110.222 164.699 108.775 163.807 108.164C163.309 107.833 162.4 107.38 161.782 107.153C160.787 106.769 160.392 106.734 157.921 106.734C155.588 106.734 154.953 106.804 153.666 107.135L152.156 107.554L150.526 105.95C148.056 103.525 146.529 103.002 144.71 103.944L143.869 104.363L143.132 103.682C142.342 102.933 141.896 102.828 141.467 103.264Z" fill="black"/>
<path d="M205.277 104.799C203.938 105.078 201.468 105.845 201.073 106.124C200.884 106.264 201.519 106.281 203.218 106.176C207.096 105.95 210.613 106.019 211.831 106.351C214.542 107.083 217.991 109.507 220.77 112.611C221.354 113.257 221.954 113.989 222.109 114.233C222.64 115.07 222.555 114.53 221.988 113.501C219.535 109.036 216.103 106.072 212.14 104.973C210.733 104.589 206.855 104.485 205.277 104.799Z" fill="black"/>
<path d="M196.08 107.955C195.205 108.182 193.181 109.001 193.181 109.124C193.181 109.158 194.708 109.176 196.561 109.176C202.36 109.176 203.647 109.734 208.794 114.512C211.574 117.093 212.809 118.053 214.233 118.715C215.314 119.238 215.52 119.273 217.322 119.273C218.934 119.291 219.295 119.238 219.552 118.977C219.792 118.733 219.809 118.611 219.672 118.366C219.501 118.122 219.295 118.087 218.471 118.157C217.905 118.21 216.858 118.244 216.138 118.244C214.473 118.244 214.302 118.122 212.449 115.628C209.343 111.46 206.581 109.385 202.6 108.217C200.953 107.728 197.487 107.589 196.08 107.955Z" fill="black"/>
<path d="M160.306 114.896C159.912 116.78 157.784 118.192 154.953 118.471L153.804 118.593L154.73 118.994C156.789 119.919 158.402 119.919 159.775 119.029C161.439 117.965 162.039 116.378 161.267 115.105C160.77 114.286 160.461 114.216 160.306 114.896Z" fill="black"/>
<path d="M174.479 130.592C174.479 130.818 174.719 131.359 174.993 131.812C175.577 132.754 175.594 132.859 175.268 133.138C175.062 133.312 175.457 133.591 177.447 134.62C178.785 135.318 182.869 137.62 186.506 139.73C195.342 144.875 195.411 144.909 196.612 144.787C198.774 144.543 198.757 144.543 194.725 142.485C189.423 139.782 183.572 136.556 178.253 133.399C176.297 132.231 176.057 132.039 175.542 131.15C174.942 130.156 174.479 129.894 174.479 130.592Z" fill="black"/>
</svg>
